<svg xmlns="http://www.w3.org/2000/svg" width="1200" height="630" viewBox="0 0 1200 630" fill="none">
  <rect width="1200" height="630" fill="#faf9f6"/>
  <defs>
    <radialGradient id="g1" cx="75%" cy="45%" r="45%">
      <stop offset="0%" stop-color="#c9ead6" stop-opacity="0.5"/>
      <stop offset="100%" stop-color="#faf9f6" stop-opacity="0"/>
    </radialGradient>
    <radialGradient id="g2" cx="85%" cy="55%" r="40%">
      <stop offset="0%" stop-color="#bccefd" stop-opacity="0.35"/>
      <stop offset="100%" stop-color="#faf9f6" stop-opacity="0"/>
    </radialGradient>
  </defs>
  <rect width="1200" height="630" fill="url(#g1)"/>
  <rect width="1200" height="630" fill="url(#g2)"/>
  <g stroke="#e3e2e0" stroke-width="1" opacity="0.6">
    <path d="M0 80H1200M0 160H1200M0 240H1200M0 320H1200M0 400H1200M0 480H1200M0 560H1200"/>
    <path d="M120 0V630M240 0V630M360 0V630M480 0V630M600 0V630M720 0V630M840 0V630M960 0V630M1080 0V630"/>
  </g>
  <g transform="translate(720 200)">
    <circle cx="0" cy="0" r="6" fill="#062418"/>
    <g stroke="#062418" stroke-linecap="round" stroke-width="1.2" opacity="0.75">
      <line x1="0" y1="0" x2="0" y2="-120"/>
      <line x1="0" y1="0" x2="104" y2="-60"/>
      <line x1="0" y1="0" x2="120" y2="0"/>
      <line x1="0" y1="0" x2="104" y2="60"/>
      <line x1="0" y1="0" x2="0" y2="120"/>
      <line x1="0" y1="0" x2="-104" y2="60"/>
      <line x1="0" y1="0" x2="-120" y2="0"/>
      <line x1="0" y1="0" x2="-104" y2="-60"/>
    </g>
    <path d="M -80 40 Q 0 70 80 40" stroke="#1d3a2c" stroke-width="1.5" fill="none" opacity="0.5"/>
  </g>
  <text x="80" y="280" fill="#062418" font-family="system-ui,sans-serif" font-size="56" font-weight="700" letter-spacing="-0.03em">
    Vector Studios AI
  </text>
  <text x="80" y="350" fill="#4c5e86" font-family="system-ui,sans-serif" font-size="32" font-weight="500">
    Apps, webs e IA que venden por ti
  </text>
  <text x="80" y="420" fill="#424844" font-family="system-ui,sans-serif" font-size="22" font-weight="400">
    Desarrollo de producto + agentes de texto y voz
  </text>
</svg>
